<svg xmlns="http://www.w3.org/2000/svg" width="1180" height="354" viewBox="0 0 1180 354" fill="none">
<g stroke="#68212A" stroke-width="2" stroke-linecap="round" stroke-linejoin="round">
<path d="M98.00,275.00 L112.00,281.00 L124.00,281.00 L116.00,279.00 L120.00,274.00 L126.00,280.00 L146.00,274.00 L149.00,277.00 L142.00,279.00 L150.00,276.00 L180.00,279.00 L160.00,274.00 L137.00,277.00 L117.00,274.00 L118.00,277.00 L106.00,280.00 L98.00,276.00 L106.00,276.00 Z"/>
<path d="M193.00,263.00 L165.00,273.00 L192.00,263.00 L189.00,268.00 L170.00,273.00 L169.00,276.00 L175.00,277.00 L170.00,276.00 L171.00,273.00 L185.00,270.00 L191.00,267.00 Z"/>
<path d="M1019.00,259.00 L1012.00,263.00 L988.00,265.00 L995.00,266.00 L993.00,265.00 L1002.00,263.00 L1001.00,268.00 L1000.00,265.00 L997.00,268.00 L984.00,266.00 L984.00,263.00 L976.00,267.00 L983.00,268.00 L976.00,267.00 L982.00,264.00 L988.00,268.00 L1004.00,267.00 L1009.00,270.00 L1008.00,267.00 L1006.00,269.00 L1004.00,267.00 L1007.00,265.00 L1004.00,267.00 L1003.00,264.00 Z"/>
<path d="M901.00,259.00 L907.00,265.00 L918.00,268.00 L921.00,272.00 L925.00,266.00 L924.00,264.00 L920.00,264.00 L924.00,265.00 L922.00,268.00 L921.00,267.00 L921.00,272.00 L918.00,268.00 L911.00,267.00 L907.00,264.00 L908.00,262.00 L919.00,266.00 L913.00,265.00 L904.00,259.00 Z"/>
<path d="M1005.00,257.00 L1007.00,260.00 L1016.00,258.00 L1019.00,255.00 L1024.00,258.00 L1017.00,264.00 L1014.00,264.00 L1018.00,264.00 L1023.00,259.00 L1026.00,261.00 L1028.00,260.00 L1026.00,261.00 L1024.00,259.00 L1025.00,257.00 L1030.00,257.00 L1033.00,260.00 L1030.00,261.00 L1033.00,261.00 L1031.00,257.00 L1024.00,258.00 L1019.00,254.00 Z"/>
<path d="M1128.00,254.00 L1125.00,251.00 L1118.00,252.00 L1113.00,257.00 L1115.00,264.00 L1112.00,266.00 L1093.00,265.00 L1093.00,267.00 L1098.00,269.00 L1115.00,268.00 L1118.00,265.00 L1119.00,266.00 L1118.00,264.00 L1120.00,263.00 L1115.00,259.00 L1120.00,254.00 L1124.00,254.00 L1126.00,257.00 L1123.00,261.00 L1124.00,260.00 L1126.00,263.00 Z"/>
<path d="M877.00,255.00 L878.00,258.00 L882.00,259.00 L888.00,257.00 L882.00,259.00 L879.00,258.00 L879.00,256.00 L886.00,254.00 L889.00,255.00 L890.00,259.00 L887.00,260.00 L887.00,264.00 L891.00,264.00 L890.00,256.00 L887.00,254.00 L889.00,250.00 L890.00,253.00 L890.00,251.00 L888.00,250.00 L888.00,252.00 L885.00,255.00 Z"/>
<path d="M984.00,249.00 L981.00,249.00 L980.00,252.00 L982.00,249.00 L984.00,250.00 L983.00,252.00 L976.00,257.00 L969.00,257.00 L965.00,259.00 L964.00,262.00 L967.00,262.00 L969.00,265.00 L966.00,266.00 L969.00,266.00 L967.00,262.00 L970.00,260.00 L971.00,257.00 L973.00,258.00 L974.00,263.00 L976.00,263.00 L978.00,260.00 L982.00,260.00 L981.00,254.00 L984.00,251.00 Z"/>
<path d="M949.00,247.00 L942.00,253.00 L938.00,263.00 L928.00,264.00 L935.00,268.00 L940.00,267.00 L946.00,269.00 L943.00,268.00 L948.00,265.00 L951.00,267.00 L948.00,270.00 L951.00,270.00 L949.00,265.00 L940.00,265.00 L939.00,268.00 L934.00,266.00 L940.00,261.00 L943.00,262.00 L944.00,255.00 L942.00,254.00 L949.00,250.00 Z"/>
<path d="M819.00,251.00 L818.00,255.00 L831.00,267.00 L827.00,258.00 L818.00,254.00 L831.00,248.00 L828.00,261.00 L835.00,266.00 L845.00,262.00 L849.00,266.00 L833.00,268.00 L850.00,270.00 L848.00,285.00 L857.00,275.00 L853.00,272.00 L857.00,276.00 L854.00,279.00 L851.00,275.00 L853.00,264.00 L851.00,271.00 L846.00,262.00 L835.00,266.00 L828.00,260.00 L832.00,248.00 Z"/>
<path d="M908.00,242.00 L909.00,253.00 L906.00,257.00 L903.00,255.00 L906.00,254.00 L903.00,254.00 L903.00,256.00 L911.00,261.00 L925.00,261.00 L926.00,260.00 L918.00,260.00 L919.00,258.00 L924.00,259.00 L925.00,257.00 L924.00,259.00 L917.00,258.00 L908.00,254.00 Z"/>
<path d="M199.00,237.00 L186.00,240.00 L187.00,245.00 L180.00,251.00 L180.00,248.00 L150.00,251.00 L154.00,254.00 L151.00,249.00 L171.00,252.00 L177.00,249.00 L176.00,253.00 L167.00,256.00 L164.00,253.00 L156.00,253.00 L172.00,255.00 Z"/>
<path d="M1031.00,235.00 L1005.00,237.00 L1005.00,239.00 L1015.00,240.00 L1023.00,238.00 L1010.00,240.00 L1006.00,239.00 L1006.00,237.00 L1019.00,237.00 L1024.00,235.00 L1026.00,238.00 L1031.00,237.00 Z"/>
<path d="M150.00,238.00 L152.00,236.00 L153.00,238.00 L172.00,237.00 L183.00,240.00 L183.00,237.00 L180.00,240.00 L172.00,237.00 L173.00,235.00 L180.00,236.00 L165.00,233.00 L169.00,236.00 L170.00,234.00 L172.00,237.00 L161.00,238.00 L159.00,236.00 L162.00,233.00 L153.00,232.00 L163.00,234.00 Z"/>
<path d="M957.00,221.00 L957.00,226.00 L954.00,229.00 L955.00,233.00 L952.00,233.00 L952.00,229.00 L953.00,236.00 L949.00,245.00 L951.00,241.00 L954.00,242.00 L955.00,240.00 L958.00,242.00 L959.00,240.00 L957.00,242.00 L955.00,240.00 L957.00,239.00 L955.00,238.00 L955.00,231.00 L957.00,230.00 L958.00,234.00 L959.00,231.00 L961.00,233.00 L960.00,231.00 L954.00,229.00 L957.00,227.00 Z"/>
<path d="M857.00,221.00 L854.00,224.00 L857.00,226.00 L852.00,226.00 L853.00,232.00 L851.00,237.00 L845.00,242.00 L842.00,241.00 L846.00,242.00 L851.00,237.00 L853.00,240.00 L843.00,244.00 L847.00,244.00 L856.00,238.00 L864.00,239.00 L862.00,235.00 L856.00,236.00 L859.00,237.00 L855.00,239.00 L851.00,237.00 L856.00,232.00 Z"/>
<path d="M123.00,220.00 L123.00,223.00 L134.00,225.00 L124.00,223.00 L124.00,220.00 L136.00,223.00 L136.00,226.00 L141.00,227.00 L137.00,225.00 L142.00,225.00 L144.00,227.00 L143.00,228.00 L154.00,227.00 L145.00,227.00 L135.00,222.00 Z"/>
<path d="M142.00,220.00 L142.00,222.00 L146.00,224.00 L142.00,221.00 L143.00,220.00 L156.00,220.00 L158.00,222.00 L155.00,223.00 L162.00,226.00 L157.00,228.00 L167.00,226.00 L162.00,226.00 L158.00,223.00 L161.00,219.00 L166.00,220.00 L167.00,222.00 L165.00,223.00 L167.00,224.00 L170.00,223.00 L169.00,219.00 L160.00,219.00 L158.00,221.00 Z"/>
<path d="M1060.00,217.00 L1057.00,218.00 L1056.00,226.00 L1048.00,233.00 L1042.00,235.00 L1046.00,231.00 L1036.00,232.00 L1045.00,237.00 L1047.00,235.00 L1045.00,237.00 L1043.00,234.00 L1054.00,233.00 L1047.00,245.00 L1037.00,250.00 L1037.00,257.00 L1042.00,258.00 L1037.00,256.00 L1038.00,250.00 L1044.00,249.00 L1039.00,253.00 L1042.00,256.00 L1039.00,253.00 L1053.00,243.00 L1060.00,229.00 Z"/>
<path d="M205.00,215.00 L191.00,217.00 L186.00,220.00 L175.00,220.00 L174.00,217.00 L187.00,216.00 L171.00,217.00 L174.00,218.00 L172.00,220.00 L187.00,220.00 L191.00,217.00 Z"/>
<path d="M165.00,210.00 L165.00,213.00 L167.00,214.00 L173.00,213.00 L175.00,211.00 L191.00,212.00 L192.00,215.00 L193.00,212.00 L197.00,212.00 L198.00,214.00 L204.00,213.00 L181.00,211.00 L176.00,212.00 L173.00,209.00 L171.00,210.00 L172.00,212.00 L169.00,213.00 Z"/>
<path d="M234.00,206.00 L232.00,209.00 L235.00,209.00 L237.00,213.00 L234.00,216.00 L232.00,214.00 L228.00,215.00 L232.00,214.00 L234.00,217.00 L227.00,228.00 L225.00,227.00 L230.00,219.00 L227.00,222.00 L225.00,231.00 L227.00,231.00 L225.00,229.00 L229.00,227.00 L230.00,223.00 L237.00,214.00 L236.00,208.00 L233.00,208.00 Z"/>
<path d="M1038.00,229.00 L1040.00,207.00 L1038.00,221.00 L1037.00,209.00 L1025.00,208.00 L1040.00,202.00 L1018.00,207.00 L993.00,206.00 L998.00,211.00 L1035.00,208.00 L1039.00,222.00 L1035.00,227.00 Z"/>
<path d="M441.00,198.00 L438.00,198.00 L432.00,209.00 L433.00,213.00 L430.00,214.00 L429.00,223.00 L431.00,223.00 L432.00,214.00 L435.00,209.00 L443.00,200.00 L439.00,202.00 L433.00,212.00 L432.00,209.00 L437.00,200.00 Z"/>
<path d="M140.00,196.00 L140.00,200.00 L150.00,198.00 L159.00,201.00 L164.00,197.00 L173.00,201.00 L179.00,199.00 L182.00,202.00 L202.00,201.00 L183.00,202.00 L179.00,197.00 L164.00,194.00 L161.00,197.00 L162.00,199.00 L158.00,201.00 L151.00,199.00 L151.00,196.00 Z"/>
<path d="M766.00,194.00 L771.00,194.00 L792.00,201.00 L798.00,200.00 L806.00,203.00 L809.00,202.00 L801.00,202.00 L797.00,200.00 L797.00,198.00 L809.00,200.00 L781.00,195.00 L774.00,192.00 Z"/>
<path d="M957.00,191.00 L958.00,207.00 L954.00,202.00 L956.00,212.00 L958.00,207.00 L959.00,214.00 L975.00,212.00 L978.00,236.00 L959.00,238.00 L984.00,239.00 L977.00,234.00 L981.00,217.00 L975.00,207.00 L979.00,204.00 L982.00,211.00 L987.00,207.00 L978.00,201.00 L975.00,207.00 L959.00,208.00 L959.00,200.00 L962.00,202.00 Z"/>
<path d="M876.00,196.00 L881.00,198.00 L886.00,197.00 L889.00,200.00 L887.00,202.00 L876.00,200.00 L886.00,201.00 L889.00,205.00 L887.00,202.00 L889.00,200.00 L892.00,206.00 L891.00,201.00 L886.00,196.00 L889.00,193.00 L894.00,196.00 L890.00,194.00 L891.00,192.00 L893.00,193.00 L891.00,191.00 L886.00,192.00 L888.00,194.00 L886.00,194.00 L885.00,197.00 L883.00,192.00 L884.00,195.00 L882.00,198.00 L880.00,195.00 Z"/>
<path d="M847.00,197.00 L849.00,199.00 L851.00,194.00 L865.00,200.00 L852.00,194.00 L858.00,192.00 L867.00,199.00 L867.00,210.00 L869.00,210.00 L869.00,204.00 L866.00,202.00 L870.00,195.00 L873.00,195.00 L874.00,191.00 L867.00,198.00 L855.00,191.00 Z"/>
<path d="M410.00,183.00 L383.00,196.00 L370.00,200.00 L368.00,197.00 L382.00,194.00 L390.00,189.00 L382.00,194.00 L370.00,195.00 L363.00,199.00 L371.00,200.00 L389.00,194.00 Z"/>
<path d="M155.00,183.00 L157.00,188.00 L184.00,186.00 L184.00,183.00 L177.00,185.00 L159.00,186.00 L183.00,183.00 L183.00,186.00 L158.00,188.00 L155.00,185.00 L157.00,183.00 Z"/>
<path d="M442.00,188.00 L454.00,189.00 L443.00,196.00 L450.00,193.00 L445.00,198.00 L466.00,189.00 L455.00,194.00 L454.00,189.00 L471.00,185.00 L478.00,191.00 L466.00,191.00 L496.00,200.00 L474.00,188.00 L472.00,181.00 L459.00,182.00 L468.00,184.00 L469.00,188.00 L454.00,189.00 L454.00,183.00 Z"/>
<path d="M185.00,179.00 L197.00,185.00 L211.00,187.00 L227.00,186.00 L212.00,187.00 L208.00,185.00 L209.00,182.00 L214.00,185.00 L226.00,183.00 L235.00,185.00 L226.00,183.00 L235.00,180.00 L222.00,185.00 L203.00,182.00 L208.00,183.00 L206.00,186.00 Z"/>
<path d="M600.00,178.00 L605.00,182.00 L603.00,184.00 L606.00,184.00 L604.00,183.00 L607.00,182.00 L608.00,185.00 L618.00,191.00 L625.00,200.00 L629.00,201.00 L630.00,199.00 L627.00,197.00 L629.00,196.00 L629.00,193.00 L627.00,193.00 L629.00,194.00 L627.00,197.00 L618.00,187.00 L611.00,183.00 L605.00,182.00 Z"/>
<path d="M927.00,177.00 L929.00,248.00 L930.00,177.00 L927.00,242.00 Z"/>
<path d="M601.00,182.00 L596.00,181.00 L593.00,177.00 L586.00,177.00 L592.00,177.00 L593.00,180.00 L594.00,179.00 L598.00,181.00 L598.00,183.00 L582.00,182.00 L582.00,178.00 L575.00,179.00 L574.00,183.00 L572.00,183.00 L571.00,185.00 L581.00,182.00 L593.00,182.00 L601.00,184.00 Z"/>
<path d="M986.00,177.00 L991.00,179.00 L986.00,179.00 L988.00,180.00 L995.00,177.00 L997.00,178.00 L993.00,180.00 L1003.00,180.00 L998.00,180.00 L998.00,177.00 L1011.00,177.00 L1011.00,179.00 L1005.00,179.00 L1022.00,180.00 L1014.00,180.00 L1013.00,177.00 L1023.00,178.00 Z"/>
<path d="M936.00,176.00 L944.00,199.00 L947.00,200.00 L944.00,198.00 L937.00,179.00 L939.00,178.00 L949.00,199.00 L948.00,202.00 L950.00,198.00 L953.00,207.00 L951.00,199.00 L955.00,197.00 L955.00,200.00 L956.00,197.00 L947.00,197.00 L940.00,178.00 Z"/>
<path d="M733.00,173.00 L743.00,175.00 L743.00,178.00 L734.00,175.00 L748.00,181.00 L773.00,187.00 L780.00,184.00 L788.00,189.00 L779.00,187.00 L787.00,190.00 L788.00,187.00 L777.00,183.00 L760.00,184.00 L751.00,179.00 L752.00,177.00 L764.00,182.00 L759.00,179.00 Z"/>
<path d="M169.00,174.00 L171.00,176.00 L175.00,176.00 L178.00,179.00 L183.00,179.00 L179.00,179.00 L176.00,176.00 L177.00,173.00 L180.00,176.00 L186.00,176.00 L189.00,180.00 L193.00,179.00 L196.00,182.00 L197.00,181.00 L200.00,183.00 L197.00,181.00 L196.00,182.00 L193.00,179.00 L190.00,180.00 L187.00,176.00 L181.00,176.00 L178.00,173.00 L175.00,174.00 L172.00,172.00 L176.00,175.00 L175.00,176.00 Z"/>
<path d="M684.00,165.00 L695.00,166.00 L704.00,170.00 L709.00,166.00 L717.00,173.00 L723.00,170.00 L725.00,172.00 L724.00,174.00 L721.00,172.00 L725.00,174.00 L726.00,171.00 L727.00,174.00 L731.00,176.00 L731.00,172.00 L729.00,171.00 L727.00,172.00 L710.00,166.00 L705.00,167.00 L698.00,165.00 L692.00,167.00 Z"/>
<path d="M893.00,164.00 L885.00,170.00 L880.00,179.00 L880.00,186.00 L874.00,187.00 L875.00,189.00 L884.00,189.00 L885.00,187.00 L882.00,184.00 L887.00,182.00 L888.00,179.00 L894.00,179.00 L893.00,182.00 L892.00,180.00 L891.00,183.00 L890.00,181.00 L888.00,189.00 L891.00,183.00 L894.00,182.00 L893.00,178.00 L885.00,174.00 L890.00,170.00 L892.00,174.00 L889.00,173.00 L892.00,175.00 L890.00,170.00 L894.00,166.00 L891.00,165.00 Z"/>
<path d="M265.00,165.00 L254.00,172.00 L243.00,171.00 L249.00,168.00 L253.00,169.00 L258.00,164.00 L254.00,168.00 L243.00,170.00 L243.00,172.00 L251.00,172.00 L249.00,180.00 L252.00,172.00 L254.00,173.00 L253.00,175.00 L257.00,169.00 L262.00,170.00 Z"/>
<path d="M604.00,160.00 L615.00,165.00 L605.00,161.00 L618.00,160.00 L627.00,164.00 L622.00,165.00 L662.00,170.00 L649.00,167.00 L649.00,164.00 L657.00,165.00 Z"/>
<path d="M602.00,160.00 L525.00,159.00 L472.00,168.00 L519.00,165.00 L506.00,163.00 L526.00,159.00 Z"/>
<path d="M976.00,157.00 L984.00,160.00 L977.00,157.00 L1015.00,158.00 L1017.00,162.00 L986.00,161.00 L1015.00,161.00 L1027.00,169.00 L1018.00,157.00 Z"/>
<path d="M923.00,160.00 L929.00,162.00 L939.00,172.00 L930.00,163.00 L936.00,162.00 L937.00,167.00 L942.00,171.00 L936.00,165.00 L937.00,162.00 L932.00,162.00 L933.00,157.00 L929.00,157.00 L931.00,156.00 L933.00,158.00 L932.00,161.00 L927.00,159.00 L931.00,160.00 L931.00,162.00 Z"/>
<path d="M943.00,166.00 L943.00,164.00 L948.00,161.00 L955.00,162.00 L953.00,164.00 L946.00,164.00 L960.00,164.00 L959.00,161.00 L961.00,159.00 L965.00,159.00 L958.00,161.00 L950.00,155.00 L951.00,156.00 L949.00,157.00 L948.00,155.00 L950.00,159.00 L950.00,157.00 L953.00,157.00 L958.00,162.00 L956.00,163.00 L953.00,160.00 L943.00,163.00 Z"/>
<path d="M545.00,155.00 L538.00,155.00 L535.00,153.00 L531.00,156.00 L502.00,156.00 L532.00,156.00 L535.00,153.00 L537.00,155.00 Z"/>
<path d="M523.00,153.00 L522.00,154.00 L519.00,152.00 L515.00,152.00 L514.00,154.00 L502.00,153.00 L481.00,156.00 L504.00,153.00 L514.00,154.00 L516.00,152.00 L521.00,154.00 Z"/>
<path d="M206.00,154.00 L220.00,160.00 L228.00,162.00 L231.00,161.00 L231.00,159.00 L215.00,155.00 L209.00,151.00 L207.00,152.00 L208.00,151.00 L214.00,155.00 L231.00,160.00 L228.00,162.00 Z"/>
<path d="M525.00,151.00 L615.00,157.00 L624.00,155.00 L616.00,157.00 L609.00,153.00 L626.00,153.00 Z"/>
<path d="M952.00,148.00 L947.00,147.00 L938.00,151.00 L932.00,149.00 L918.00,153.00 L922.00,152.00 L927.00,156.00 L930.00,152.00 L933.00,152.00 L929.00,152.00 L926.00,156.00 L923.00,153.00 L925.00,151.00 L935.00,149.00 L940.00,152.00 L937.00,154.00 L935.00,153.00 L939.00,154.00 L940.00,152.00 L945.00,154.00 L945.00,152.00 L941.00,153.00 L940.00,150.00 L944.00,148.00 L945.00,150.00 L947.00,147.00 Z"/>
<path d="M965.00,145.00 L973.00,150.00 L997.00,150.00 L992.00,150.00 L994.00,147.00 L990.00,150.00 L974.00,150.00 L972.00,147.00 L966.00,146.00 L992.00,146.00 L974.00,145.00 L992.00,144.00 Z"/>
<path d="M230.00,150.00 L231.00,153.00 L232.00,149.00 L243.00,154.00 L251.00,153.00 L251.00,155.00 L241.00,156.00 L234.00,153.00 L241.00,156.00 L271.00,156.00 L260.00,152.00 L249.00,153.00 L253.00,150.00 L246.00,149.00 L241.00,144.00 L240.00,148.00 L247.00,153.00 Z"/>
<path d="M156.00,147.00 L177.00,161.00 L180.00,161.00 L175.00,156.00 L180.00,160.00 L178.00,161.00 L169.00,156.00 L167.00,150.00 L159.00,149.00 L158.00,145.00 L165.00,149.00 L169.00,147.00 L173.00,150.00 L170.00,153.00 L172.00,151.00 L180.00,156.00 L199.00,156.00 L198.00,153.00 L191.00,153.00 L189.00,156.00 L187.00,152.00 L168.00,146.00 L163.00,148.00 L158.00,144.00 Z"/>
<path d="M289.00,147.00 L293.00,147.00 L296.00,145.00 L302.00,146.00 L299.00,146.00 L299.00,143.00 L306.00,143.00 L306.00,147.00 L304.00,146.00 L307.00,147.00 L311.00,145.00 L308.00,146.00 L308.00,143.00 L316.00,143.00 L317.00,144.00 L315.00,146.00 L313.00,145.00 L315.00,146.00 L317.00,143.00 L296.00,143.00 L289.00,145.00 Z"/>
<path d="M225.00,101.00 L224.00,102.00 L226.00,102.00 L232.00,114.00 L231.00,115.00 L228.00,109.00 L223.00,106.00 L220.00,106.00 L219.00,112.00 L222.00,112.00 L220.00,112.00 L219.00,109.00 L220.00,108.00 L222.00,110.00 L222.00,108.00 L221.00,109.00 L220.00,107.00 L223.00,106.00 L225.00,108.00 L224.00,109.00 L226.00,107.00 L230.00,115.00 L232.00,115.00 L232.00,111.00 Z"/>
<path d="M307.00,72.00 L309.00,72.00 L315.00,66.00 L330.00,66.00 L330.00,64.00 L323.00,63.00 L327.00,63.00 L329.00,65.00 L328.00,66.00 L315.00,66.00 L308.00,72.00 L307.00,70.00 L311.00,66.00 L317.00,63.00 L321.00,63.00 L316.00,63.00 L310.00,66.00 Z"/>
</g></svg>